<svg width="96" height="96" xmlns="http://www.w3.org/2000/svg" xmlns:xlink="http://www.w3.org/1999/xlink" xml:space="preserve" overflow="hidden"><g transform="translate(-121 -487)"><path d="M150 513C151.7 513 153 511.7 153 510L153 504C153 502.3 151.7 501 150 501 148.3 501 147 502.3 147 504L147 510C147 511.7 148.3 513 150 513Z"/><path d="M141 555 157 555 157 563 141 563 141 555ZM141 543 157 543 157 551 141 551 141 543ZM141 531 157 531 157 539 141 539 141 531ZM177 531 177 539 161 539 161 531 177 531ZM197 531 197 539 181 539 181 531 197 531ZM197 551 181 551 181 543 197 543 197 551ZM197 563 181 563 181 555 197 555 197 563ZM161 551 161 543 177 543 177 551 161 551ZM161 563 161 555 177 555 177 563 161 563ZM135 569 203 569 203 525 135 525 135 569Z"/><path d="M188 513C189.7 513 191 511.7 191 510L191 504C191 502.3 189.7 501 188 501 186.3 501 185 502.3 185 504L185 510C185 511.7 186.3 513 188 513Z"/><path d="M195 507 195 510C195 513.9 191.9 517 188 517 184.1 517 181 513.9 181 510L181 507 157 507 157 510C157 513.9 153.9 517 150 517 146.1 517 143 513.9 143 510L143 507 135 507 135 521 203 521 203 507 195 507Z"/></g></svg>