<svg width="96" height="96" xmlns="http://www.w3.org/2000/svg" xmlns:xlink="http://www.w3.org/1999/xlink" xml:space="preserve" overflow="hidden"><g transform="translate(-635 -86)"><path d="M693.049 91.755C692.535 91.5531 691.954 91.8063 691.753 92.3205 691.551 92.8347 691.804 93.4151 692.318 93.617 711.086 100.973 720.338 122.151 712.982 140.919 705.625 159.688 684.447 168.939 665.679 161.583 665.165 161.381 664.584 161.634 664.383 162.148 664.181 162.663 664.434 163.243 664.948 163.445 669.112 165.078 673.529 165.97 678 166.08L678 173.1 665.5 173.1C663.291 173.1 661.5 174.891 661.5 177.1L663.5 177.1C663.5 175.995 664.395 175.1 665.5 175.1L692.5 175.1C693.605 175.1 694.5 175.995 694.5 177.1L696.5 177.1C696.5 174.891 694.709 173.1 692.5 173.1L680 173.1 680 166.062C701.247 165.52 718.032 147.857 717.491 126.61 717.096 111.133 707.466 97.3991 693.049 91.755Z"/><path d="M654.5 178.1 703.5 178.1 703.5 180.1 654.5 180.1Z"/><path d="M666.631 157.654C683.23 164.485 702.223 156.567 709.054 139.968 715.885 123.369 707.966 104.376 691.368 97.545 674.769 90.7142 655.776 98.6324 648.945 115.231 642.058 131.695 649.822 150.625 666.286 157.512 666.401 157.56 666.516 157.607 666.631 157.654ZM680.305 127.054 691.165 100.667C696.41 109.677 697.115 121.519 692.994 132.276ZM692.233 134.126C687.588 144.666 678.752 152.581 668.685 155.29L679.544 128.905ZM678.456 126.3 665.767 121.072C670.412 110.532 679.248 102.617 689.315 99.908ZM677.7 128.144 666.835 154.531C661.59 145.521 660.885 133.679 665.006 122.922ZM670.42 156.868C680.571 153.708 689.386 145.574 694.082 134.889L706.8 140.123C700.537 153.987 685.025 161.127 670.42 156.868ZM707.562 138.274 694.843 133.039C699.03 122.139 698.493 110.162 693.507 100.772 706.879 108.027 712.872 124.018 707.562 138.274ZM679.039 97.1C681.929 97.101 684.805 97.5162 687.577 98.333 677.427 101.494 668.613 109.627 663.918 120.311L651.211 115.082C656.147 104.14 667.035 97.1044 679.039 97.1ZM650.439 116.926 663.158 122.161C658.971 133.056 659.508 145.038 664.494 154.428 651.122 147.173 645.129 131.183 650.438 116.926Z"/></g></svg>