<svg width="96" height="96" xmlns="http://www.w3.org/2000/svg" xmlns:xlink="http://www.w3.org/1999/xlink" xml:space="preserve" overflow="hidden"><g transform="translate(-302 -436)"><path d="M336.59 500.41 325.17 489 336.59 477.59 339.41 480.41 330.83 489 339.41 497.59 336.59 500.41Z"/><path d="M363.41 500.41 360.59 497.59 369.17 489 360.59 480.41 363.41 477.59 374.83 489 363.41 500.41Z"/><path d="M343.301 500.322 352.869 477.236 356.564 478.767 346.997 501.853Z"/><path d="M310 453 310 515 390 515 390 453ZM379 459C380.105 459 381 459.895 381 461 381 462.105 380.105 463 379 463 377.895 463 377 462.105 377 461 377 459.895 377.895 459 379 459ZM372 459C373.105 459 374 459.895 374 461 374 462.105 373.105 463 372 463 370.895 463 370 462.105 370 461 370 459.895 370.895 459 372 459ZM365 459C366.105 459 367 459.895 367 461 367 462.105 366.105 463 365 463 363.895 463 363 462.105 363 461 363 459.895 363.895 459 365 459ZM384 509 316 509 316 469 384 469Z"/></g></svg>